<svg width="276" height="239" viewBox="0 0 276 239" fill="none" xmlns="http://www.w3.org/2000/svg">
<g clip-path="url(#clip0_317_9160)">
<path d="M185.867 2.82031H77.8149V164.732H185.867V2.82031Z" fill="#4867AA"/>
<path d="M259.335 0H257.032V167.552H259.335V0Z" fill="#4867AA"/>
<path d="M257.032 167.552L185.867 164.731V2.82008L257.032 0V167.552Z" fill="#5ABFFF"/>
<path d="M181.605 7.09814H82.0771V160.452H181.605V7.09814Z" fill="#5ABFFF"/>
<path d="M111.295 144.513H89.4575V107.328H102.202V82.5189H94.6918V20.5312H95.5831V81.6729H103.093V108.174H90.3489V143.668H111.295V144.513Z" fill="#4867AA"/>
<path d="M111.296 136.979H96.5127V115.154H104.705V20.5312H105.597V116H97.404V136.133H111.296V136.979Z" fill="#4867AA"/>
<path d="M130.609 144.09H129.716V108.174H116.972V81.6729H124.482V20.5312H125.373V82.5189H117.863V107.328H130.609V144.09Z" fill="#4867AA"/>
<path d="M123.553 136.556H122.661V116H114.469V20.5312H115.36V115.154H123.553V136.556Z" fill="#4867AA"/>
<path d="M168.611 125.504H147.936V124.658H167.72V85.975H138.388V20.5312H139.279V85.129H168.611V125.504Z" fill="#4867AA"/>
<path d="M171.797 129.608H148.392V128.762H170.906V82.7334H147.946V20.5312H148.838V81.8874H171.797V129.608Z" fill="#4867AA"/>
<path d="M174.983 133.712H148.392V132.866H174.092V79.9269H157.959V20.5312H158.851V79.0808H174.983V133.712Z" fill="#4867AA"/>
<path d="M177.942 138.032H148.392V137.186H177.05V71.6871H168.2V20.5312H169.091V70.8411H177.942V138.032Z" fill="#4867AA"/>
<path d="M171.13 32.6426H135.872V42.2398H171.13V32.6426Z" fill="#B0C7F5"/>
<path d="M127.812 32.6426H92.5537V42.2398H127.812V32.6426Z" fill="#B0C7F5"/>
<path d="M154.99 120.794H108.691V152.319H154.99V120.794Z" fill="#B0C7F5"/>
<path d="M122.273 15.7324V19.658H117.89V15.7324H112.353V19.658H107.861V15.7324H102.324V19.658H98.0914V15.7324H92.5537V25.3297H98.0914V21.3561H102.324V25.3297H107.861V21.3561H112.353V25.3297H117.89V21.3561H122.273V25.3297H127.811V15.7324H122.273Z" fill="#B0C7F5"/>
<path d="M165.591 15.7324V19.658H161.209V15.7324H155.671V19.658H151.18V15.7324H145.642V19.658H141.41V15.7324H135.872V25.3297H141.41V21.3561H145.642V25.3297H151.18V21.3561H155.671V25.3297H161.209V21.3561H165.591V25.3297H171.129V15.7324H165.591Z" fill="#B0C7F5"/>
<path d="M171.13 66.4653H135.872V76.0626H171.13V66.4653Z" fill="#B0C7F5"/>
<path d="M164.436 88.3945H135.872V93.2862H164.436V88.3945Z" fill="#B0C7F5"/>
<path d="M164.436 96.8501H135.872V101.742H164.436V96.8501Z" fill="#B0C7F5"/>
<path d="M164.436 105.304H135.872V110.196H164.436V105.304Z" fill="#B0C7F5"/>
<path d="M127.812 66.4653H92.5537V76.0626H127.812V66.4653Z" fill="#B0C7F5"/>
<path d="M122.273 49.5537V53.4793H117.89V49.5537H112.353V53.4793H107.861V49.5537H102.324V53.4793H98.0914V49.5537H92.5537V59.151H98.0914V55.1774H102.324V59.151H107.861V55.1774H112.353V59.151H117.89V55.1774H122.273V59.151H127.811V49.5537H122.273Z" fill="#B0C7F5"/>
<path d="M165.591 49.5537V53.4793H161.209V49.5537H155.671V53.4793H151.18V49.5537H145.642V53.4793H141.41V49.5537H135.872V59.151H141.41V55.1774H145.642V59.151H151.18V55.1774H155.671V59.151H161.209V55.1774H165.591V59.151H171.129V49.5537H165.591Z" fill="#B0C7F5"/>
<path d="M117.609 87.6802H102.756C100.1 87.6802 97.9458 89.7245 97.9458 92.2463V106.344C97.9458 108.865 100.1 110.91 102.756 110.91H117.609C120.266 110.91 122.42 108.865 122.42 106.344V92.2463C122.42 89.7245 120.266 87.6802 117.609 87.6802Z" fill="#B0C7F5"/>
<path d="M229.053 82.0897C225.671 81.9697 222.287 81.9277 218.904 81.9577C222.548 76.8395 226.038 71.6194 228.862 66.0317C222.682 71.1334 217.266 76.985 212.089 82.9717C210.763 84.4267 212.018 86.8778 214.066 86.7668C217.429 86.8583 220.794 86.8793 224.157 86.8268C220.838 91.5504 217.668 96.3836 215.082 101.521C219.433 97.9721 223.345 93.9865 227.13 89.9154C228.479 88.0958 230.828 86.6633 231.354 84.4417C231.401 83.1892 230.371 82.1362 229.051 82.0912L229.053 82.0897Z" fill="#FFBB4D"/>
<path d="M248.866 147.144C248.866 147.144 248.852 147.144 248.844 147.144L194.011 145.734C193.58 145.723 193.238 145.381 193.251 144.972C193.262 144.568 193.61 144.249 194.033 144.249C194.041 144.249 194.047 144.249 194.055 144.249L248.888 145.659C249.32 145.669 249.661 146.011 249.648 146.421C249.637 146.824 249.29 147.144 248.866 147.144Z" fill="#B0C7F5"/>
<path d="M248.866 141.502C248.866 141.502 248.852 141.502 248.844 141.502L194.011 140.092C193.58 140.081 193.238 139.739 193.251 139.33C193.262 138.926 193.61 138.607 194.033 138.607C194.041 138.607 194.047 138.607 194.055 138.607L248.888 140.017C249.32 140.027 249.661 140.369 249.648 140.779C249.637 141.183 249.29 141.502 248.866 141.502Z" fill="#B0C7F5"/>
<path d="M248.866 135.862C248.866 135.862 248.852 135.862 248.844 135.862L194.011 134.452C193.58 134.441 193.238 134.099 193.251 133.69C193.262 133.286 193.61 132.967 194.033 132.967C194.041 132.967 194.047 132.967 194.055 132.967L248.888 134.377C249.32 134.387 249.661 134.729 249.648 135.139C249.637 135.542 249.29 135.862 248.866 135.862Z" fill="#B0C7F5"/>
<path d="M194.034 34.6312C193.612 34.6312 193.264 34.3117 193.251 33.9082C193.24 33.4987 193.58 33.1567 194.011 33.1462L248.844 31.7362C249.273 31.7242 249.636 32.0482 249.647 32.4577C249.658 32.8672 249.319 33.2092 248.887 33.2197L194.054 34.6297C194.054 34.6297 194.04 34.6297 194.032 34.6297L194.034 34.6312Z" fill="#B0C7F5"/>
<path d="M194.034 28.9915C193.612 28.9915 193.264 28.672 193.251 28.2685C193.24 27.859 193.58 27.517 194.011 27.5065L248.844 26.0964C249.273 26.0859 249.636 26.4084 249.647 26.818C249.658 27.2275 249.319 27.5695 248.887 27.58L194.054 28.99C194.054 28.99 194.04 28.99 194.032 28.99L194.034 28.9915Z" fill="#B0C7F5"/>
<path d="M194.034 23.3511C193.612 23.3511 193.264 23.0315 193.251 22.628C193.24 22.2185 193.58 21.8765 194.011 21.866L248.844 20.456C249.273 20.4425 249.636 20.768 249.647 21.1775C249.658 21.587 249.319 21.929 248.887 21.9395L194.054 23.3496C194.054 23.3496 194.04 23.3496 194.032 23.3496L194.034 23.3511Z" fill="#B0C7F5"/>
<path d="M109.728 75.4757C109.728 75.4757 116.408 73.3636 117.125 71.4901C118.355 68.2785 118.693 65.0249 116.741 65.2049C114.79 65.3849 110.044 68.6055 109.272 69.5535C109.272 69.5535 109.271 71.4511 109.728 75.4772V75.4757Z" fill="#F99370"/>
<path d="M118.826 62.4451L119.469 62.9072L126.101 54.5684L125.791 54.3464L125.457 54.1079L118.826 62.4451Z" fill="#CE3932"/>
<path d="M111.943 69.5677L114.171 71.1606L121.278 62.2057L119.05 60.6127L111.943 69.5677Z" fill="#EB5648"/>
<path d="M115.041 71.2982C115.757 71.6732 116.64 71.7662 117.389 71.3672C117.865 71.1137 117.96 70.5167 117.599 70.0322C117.345 69.6917 116.932 69.4982 116.545 69.5012L115.956 69.5087C115.945 69.5087 115.97 69.5072 115.965 69.5072C115.935 69.5072 115.877 69.4742 115.965 69.5192C115.379 69.2012 114.696 69.3407 114.44 69.8312C114.186 70.3217 114.454 70.9787 115.042 71.2967L115.041 71.2982Z" fill="#F99370"/>
<path d="M116.446 69.8701C117.241 70.0801 118.161 70.0291 118.79 69.4921C119.21 69.1186 119.153 68.4555 118.665 68.0115C118.175 67.5675 117.438 67.512 117.018 67.8855C117.034 67.866 117.054 67.872 116.997 67.8795C116.857 67.8915 116.715 67.848 116.79 67.869C116.152 67.6935 115.558 67.998 115.464 68.5515C115.37 69.1036 115.811 69.6946 116.449 69.8716L116.446 69.8701Z" fill="#F99370"/>
<path d="M118.227 68.4795L119.376 68.3505C120.006 68.28 120.376 67.764 120.202 67.1985C120.027 66.633 119.373 66.2325 118.742 66.303L117.593 66.432C116.963 66.5025 116.593 67.0185 116.767 67.584C116.942 68.1495 117.596 68.55 118.227 68.4795Z" fill="#F99370"/>
<path d="M119.155 66.9258L120.304 66.7968C120.934 66.7263 121.304 66.2103 121.13 65.6448C120.955 65.0793 120.3 64.6788 119.67 64.7493L118.521 64.8783C117.89 64.9488 117.52 65.4648 117.694 66.0303C117.87 66.5958 118.524 66.9963 119.155 66.9258Z" fill="#F99370"/>
<path d="M112.203 70.8916C113.186 68.739 114.58 66.513 116.757 65.3084C117.388 64.9664 118.576 64.8884 118.301 63.9329C117.965 62.9819 116.746 63.4649 116.023 63.6509C113.274 64.5914 109.943 66.4935 107.596 70.2901C105.804 73.1866 111.187 73.5602 112.201 70.8916H112.203Z" fill="#F99370"/>
<path d="M64.826 71.3193C70.9373 79.4795 76.5113 84.2091 85.5685 89.4743C91.3733 92.0738 104.31 75.0814 107.266 70.6878C109.036 68.1092 113.322 70.3248 112.005 73.1283C108.013 81.5436 103.379 89.9873 95.8679 96.151C87.8111 102.504 81.1371 100.144 73.0455 95.2929C64.7959 90.3203 57.5973 83.9466 51.2915 76.9084C44.9099 69.2372 58.5218 63.5626 64.8275 71.3208L64.826 71.3193Z" fill="#F99370"/>
<path d="M111.591 74.8188C111.591 74.8188 111.4 75.9258 110.856 77.7424C109.557 82.091 106.237 90.5077 98.6808 97.5369C87.9927 107.481 75.9422 104.916 67.8933 100.561C62.2656 97.5159 47.5475 83.5445 47.5475 83.5445C47.5174 83.513 54.8046 63.771 54.8046 63.771C54.8046 63.771 63.2517 64.7385 74.3982 77.7844C79.7478 84.047 86.18 83.651 90.8089 81.038C93.8148 79.3414 100.037 75.4983 103.825 73.1418C105.698 71.9762 106.948 71.1512 106.948 71.1512C106.948 71.1512 107.915 74.1258 111.591 74.8173V74.8188Z" fill="#004977"/>
<path d="M80.4621 237.855H60.5176C58.776 237.789 58.7903 236.103 59.1111 234.797C60.2095 230.085 58.2687 219.268 57.9084 214.423C57.812 213.537 58.5469 212.764 59.4856 212.764C74.2022 212.622 69.401 211.504 68.2615 226.572C67.3907 231.836 74.0062 232.839 77.777 233.421C80.2598 233.592 84.4115 236.808 80.4637 237.855H80.4621Z" fill="#F99370"/>
<path d="M58.3508 235.892C58.4045 236.82 58.8897 237.879 60.0228 237.855H80.7116C85.5919 236.138 78.2794 229.992 68.7276 230.029C65.0832 230.979 61.118 230.589 59.4349 230.208C59.4349 230.208 57.9004 231.265 58.3523 235.892H58.3508Z" fill="#103663"/>
<path d="M72.3627 234.807C72.5508 234.807 72.7247 234.692 72.7831 234.513C73.4864 232.356 75.4635 231.36 75.484 231.351C76.4986 229.406 72.7199 231.489 71.9424 234.267C71.8507 234.53 72.072 234.812 72.3627 234.807Z" fill="#E8C0A6"/>
<path d="M68.4765 234.353C68.6583 234.353 68.829 234.245 68.8922 234.072C69.7124 231.832 71.6089 230.613 71.6278 230.601C72.7499 227.725 66.5579 233.583 68.4765 234.353Z" fill="#E8C0A6"/>
<path d="M82.1596 235.892H58.3511C58.438 236.582 58.6387 237.251 59.0038 237.855H80.7104C81.7803 237.855 82.5373 236.84 82.158 235.892H82.1596Z" fill="#0F2E54"/>
<path d="M30.9361 236.487L30.5979 236.319C30.5979 236.544 30.3056 237.326 30.0685 237.326L20.0552 237.521C19.8181 237.521 19.6727 237.098 19.6727 236.873L18.8193 236.64C18.8193 235.217 18.9426 234.701 19.6048 233.6C22.0386 230.529 19.1338 216.793 19.2176 213.205C18.617 212.224 29.7619 212.993 29.9184 212.762C30.1681 212.762 30.3656 212.965 30.3467 213.202L29.0349 228.895C28.447 231.876 30.8555 233.676 30.9393 236.486L30.9361 236.487Z" fill="#F99370"/>
<path d="M20.4042 237.855H29.2464C32.0089 237.497 31.7245 234.144 29.6826 231.931C27.1967 229.237 22.3891 229.206 19.9285 231.922C17.9198 234.14 17.6606 237.503 20.4042 237.854V237.855Z" fill="#103663"/>
<path d="M21.6544 232.512C24.1103 231.098 27.8779 232.373 27.8922 232.475C30.4571 231.95 24.3916 229.895 21.4315 231.735C21.0459 231.933 21.2229 232.529 21.6544 232.512Z" fill="#E8C0A6"/>
<path d="M20.4043 237.855H29.2466C30.3718 237.855 31.2774 236.957 31.2078 235.892H18.443C18.3751 236.957 19.2791 237.857 20.4043 237.855Z" fill="#0F2E54"/>
<path d="M72.5667 221.87C72.3628 223.26 72.1495 224.589 71.9235 225.866C64.4182 228.537 55.0181 225.926 55.0181 225.926C55.0608 224.907 55.0956 223.878 55.1224 222.839C55.1319 222.516 55.1382 222.192 55.1461 221.868C55.9016 186.749 47.6014 147.253 47.5982 147.288C41.8693 182.816 37.1124 205.044 34.1349 221.334C33.8741 222.756 33.6276 224.072 33.3969 225.27C24.8786 228.786 16.708 225.27 16.708 225.27C16.708 225.27 16.708 223.863 16.7317 221.343C16.9198 201.393 19.3125 132.014 23.4088 114.626C39.7958 122.34 72.5319 107.062 72.5319 107.062C76.0515 170.472 75.4462 202.209 72.5683 221.867L72.5667 221.87Z" fill="#0274BC"/>
<path d="M52.3991 63.2489C52.7878 58.4923 54.0695 49.8746 50.1375 48.193C47.3813 47.113 43.914 49.2056 44.5967 52.2611C44.8606 52.1231 45.1577 60.7469 44.4513 63.0974C36.9002 64.806 58.8059 72.9737 52.3991 63.2489Z" fill="#F99370"/>
<path d="M44.5445 51.8684C44.5555 52.0004 44.5729 52.134 44.5966 52.263C44.7879 52.158 45.0154 56.9191 44.8131 60.3542C48.1256 62.0072 51.8553 61.5827 52.5586 61.4852C53.1133 56.3716 53.9367 50.1029 50.1375 48.1948C47.5472 46.9723 44.2442 49.0964 44.5445 51.8684Z" fill="#E57D61"/>
<path d="M70.1501 124.023C70.1501 124.023 71.8127 109.56 70.06 98.1461C67.6405 82.9402 63.4145 73.2034 54.8046 63.7712C54.7098 63.7457 53.2289 63.2972 52.404 63.2522C52.6015 64.6442 52.7327 68.7108 44.4531 63.0977C44.423 63.1292 42.1726 63.0782 41.5135 63.4322C40.8514 64.0277 25.5532 100.684 25.0001 111.819C24.7757 115.101 59.7559 128.873 70.1501 124.022V124.023Z" fill="#004977"/>
<path d="M41.5137 63.4336C44.4611 67.1912 56.2587 72.3423 54.8079 63.7756C54.7099 63.7441 53.2354 63.3001 52.4041 63.2536C52.4468 63.4786 53.5657 69.3573 44.4516 63.0976C43.8953 63.0616 42.1664 63.0976 41.5137 63.4336Z" fill="#23659B"/>
<path d="M75.7796 235.199C75.9534 235.199 76.1178 235.1 76.1873 234.938C76.9823 233.076 78.4157 232.506 78.4773 232.482C79.5947 230.807 76.3454 232.001 75.3734 234.624C75.2533 234.89 75.4762 235.203 75.7812 235.199H75.7796Z" fill="#E8C0A6"/>
<path d="M58.9358 44.992C58.9358 44.992 58.7319 40.9209 57.3032 38.1519L54.8853 39.3639L58.9358 44.992Z" fill="#8E4A35"/>
<path d="M59.386 56.9069C56.5603 59.8035 52.083 60.7305 48.4608 60.0975C47.3308 59.916 46.2498 59.574 45.2811 59.0384C44.9539 58.8584 44.6426 58.6589 44.3439 58.4384H44.3391C30.2247 45.7466 48.1447 23.789 57.2288 42.2395C60.2663 47.4206 65.3504 50.0997 59.3891 56.9039L59.386 56.9069Z" fill="#F99370"/>
<path d="M53.1465 46.4665C53.2761 46.207 53.1591 45.8965 52.8841 45.7735C52.6092 45.6505 52.282 45.763 52.1524 46.0225C52.0228 46.2835 52.1398 46.594 52.4148 46.7155C52.6898 46.8385 53.0169 46.726 53.1465 46.4665Z" fill="#C16256"/>
<path d="M57.7442 45.5994C57.8737 45.3383 57.7568 45.0293 57.4818 44.9063C57.2068 44.7833 56.8797 44.8958 56.7501 45.1553C56.6205 45.4163 56.7374 45.7269 57.0124 45.8484C57.2874 45.9714 57.6146 45.8589 57.7442 45.5994Z" fill="#C16256"/>
<path d="M56.4546 50.1521C56.1337 50.1971 55.805 50.1896 55.5253 50.1131C55.4147 50.0831 55.3515 49.9736 55.3831 49.8686C55.4147 49.7635 55.5316 49.705 55.6407 49.7335C56.3439 49.9255 57.3206 49.567 57.447 49.264C57.4913 49.1575 57.3396 49.057 57.2037 48.9925C56.0057 48.421 55.1492 46.3285 55.1144 46.2385C55.0733 46.1364 55.127 46.0224 55.2345 45.9834C55.3451 45.9429 55.4621 45.9954 55.5032 46.0974C55.5111 46.1169 56.3376 48.136 57.3917 48.64C57.9654 48.9145 57.8943 49.2685 57.8358 49.408C57.6857 49.7725 57.0867 50.0621 56.4577 50.1506L56.4546 50.1521Z" fill="#C16256"/>
<path d="M56.5493 40.9676C53.5229 39.5636 48.1638 41.0757 45.5119 41.1312C45.5119 41.1312 46.2136 45.4198 41.7332 48.6179C41.4724 52.587 40.8419 54.3345 45.2812 59.0386C44.954 58.8586 44.6427 58.6591 44.344 58.4386H44.3393C30.7511 46.3393 47.2487 24.5452 56.5525 40.9662L56.5493 40.9676Z" fill="#E57D61"/>
<path d="M57.0772 33.6232C55.2645 30.4731 51.5869 27.5825 47.3357 31.6641C44.0627 34.8067 40.4215 34.8877 40.5969 38.0933C32.8862 41.3499 37.5105 48.1751 37.5105 48.1751L40.8877 47.6966C44.6649 44.611 44.4072 40.2429 44.4072 40.2429C45.2717 40.2579 46.1804 40.1964 46.9785 39.9774C49.4534 39.3008 53.1357 38.9018 55.9804 39.8034C58.8251 40.7049 59.1017 37.1438 57.0772 33.6232Z" fill="#8E4A35"/>
<path d="M37.1104 50.7808C37.5292 52.4219 38.9989 53.4929 40.3912 53.1734C41.7836 52.8539 42.5737 51.2623 42.1549 49.6213C41.7361 47.9803 40.2664 46.9092 38.8741 47.2287C37.4802 47.5482 36.6916 49.1398 37.1104 50.7808Z" fill="#F99370"/>
<path d="M40.3694 48.4963C40.3141 48.4783 39.015 48.0448 38.3118 48.6988C38.1332 48.8653 38.0178 49.0873 37.9562 49.3558C37.9562 49.3558 37.9562 49.3558 37.9562 49.3573C37.9498 49.3828 37.9419 49.4053 37.9372 49.4308C37.8487 49.9319 37.9498 50.5934 38.2422 51.4139C38.2754 51.5054 38.3718 51.5594 38.4698 51.5459C38.4824 51.5444 38.4935 51.5414 38.5061 51.5384C38.6152 51.5039 38.6737 51.3914 38.6373 51.2879C38.4003 50.6234 38.3007 50.0789 38.3307 49.6663C39.535 49.8359 40.1766 51.0914 40.1829 51.1049C40.2224 51.1859 40.3141 51.2294 40.4026 51.2174C40.4216 51.2144 40.4405 51.2084 40.4595 51.2009C40.5638 51.1559 40.6096 51.0389 40.5622 50.9399C40.5306 50.8769 39.8321 49.4728 38.4176 49.2673C38.4635 49.1548 38.5235 49.0558 38.6041 48.9793C39.1193 48.4978 40.2193 48.8623 40.2303 48.8653C40.3394 48.9013 40.4579 48.8473 40.4958 48.7453C40.5338 48.6433 40.4785 48.5308 40.371 48.4933L40.3694 48.4963Z" fill="#C16256"/>
<path d="M50.9403 45.6987C50.9403 45.6987 50.9309 45.6957 50.9277 45.6942C50.8218 45.6567 50.7665 45.5457 50.8044 45.4452C51.3844 43.9331 52.8874 43.4261 52.9506 43.4051C53.0581 43.3706 53.175 43.4231 53.2114 43.5251C53.2477 43.6271 53.1924 43.7381 53.0849 43.7726C53.0707 43.7771 51.7005 44.2451 51.1901 45.5772C51.1537 45.6747 51.0431 45.7257 50.9403 45.6972V45.6987Z" fill="#C16256"/>
<path d="M54.836 43.6557C54.7696 43.6377 54.7143 43.5867 54.6953 43.5192C54.6653 43.4157 54.7301 43.3077 54.8407 43.2807C56.508 42.8562 57.7881 43.6257 57.8419 43.6602C57.9367 43.7187 57.9636 43.8387 57.9019 43.9287C57.8403 44.0187 57.7123 44.0442 57.619 43.9872C57.6064 43.9797 56.4322 43.2792 54.9466 43.6572C54.9087 43.6662 54.8708 43.6662 54.836 43.6572V43.6557Z" fill="#C16256"/>
<path d="M36.4546 45.8426C36.4546 45.8426 42.3463 36.3893 58.55 36.8934C58.55 36.8934 56.6029 28.9596 49.0787 27.9801C45.7631 27.5481 39.2566 28.5996 36.8781 32.7112C33.9133 37.8369 36.453 45.8426 36.453 45.8426H36.4546Z" fill="#EB5648"/>
<path d="M40.7944 41.6349C40.7944 41.6349 44.1938 38.4698 47.6644 37.0868C51.1349 35.7022 57.6319 34.5157 60.4497 35.7592C63.2675 37.0013 58.5516 36.8948 58.5516 36.8948C58.5516 36.8948 48.7454 36.2843 40.7944 41.6349Z" fill="#CE3932"/>
<path d="M46.1661 28.4705C46.1661 28.4705 53.0803 29.1965 56.3406 35.7742C56.3406 35.7742 49.7662 36.8887 49.5908 36.9502C49.4138 37.0117 47.5947 30.9846 41.8374 29.4275C41.8374 29.4275 43.7702 27.875 46.1661 28.4705Z" fill="#CE3932"/>
<path d="M56.2269 52.455C53.8737 52.455 52.8923 50.9774 52.8481 50.9084C52.7833 50.8094 52.8164 50.6789 52.9223 50.6174C53.0266 50.5559 53.1641 50.5874 53.2289 50.6864C53.2732 50.7539 54.3115 52.293 56.8828 51.9915C57.0045 51.978 57.1167 52.059 57.1309 52.176C57.1467 52.2915 57.0598 52.398 56.9365 52.4115C56.6868 52.44 56.4513 52.4535 56.2269 52.4535V52.455Z" fill="#C16256"/>
<path d="M54.8078 63.7758C54.8078 63.7758 60.6536 73.4075 62.1518 85.5039C62.1518 85.5039 53.4708 88.0959 44.5274 85.5039C44.5274 85.5039 44.8672 72.038 41.5152 63.4338C41.5152 63.4338 39.4749 62.4917 37.9087 64.0608C37.9087 64.0608 40.6317 81.8198 39.6361 87.8439C38.6404 93.8681 32.4137 106.512 24.3648 104.935C24.3648 104.935 23.4087 115.169 23.4087 114.629C23.4087 114.629 41.6068 132.346 70.6085 127.573C70.6085 127.573 73.2556 109.283 70.4267 95.5931C67.5978 81.9038 62.2387 70.1344 57.9385 64.7148C57.9385 64.7148 56.7406 63.0737 54.8109 63.7758H54.8078Z" fill="#0274BC"/>
<path d="M65.5338 119.528C64.448 119.852 63.3718 120.155 62.3098 120.435C43.135 125.49 28.0802 123.003 19.4577 105.28C13.3384 92.7083 16.349 66.4021 37.9071 64.0605C37.9071 64.0605 40.5811 72.6933 39.6344 82.6581C38.9043 90.3533 37.4551 99.76 46.7446 106.419C51.3135 109.695 57.0597 112.227 61.45 113.352C62.6369 113.656 63.7242 113.857 64.663 113.943C64.663 113.943 63.819 115.128 64.0656 116.896C64.3785 119.151 65.5338 119.526 65.5338 119.526V119.528Z" fill="#004977"/>
<path d="M85.1613 108.277L72.4971 105.151L67.5703 123.129L80.2345 126.256L85.1613 108.277Z" fill="#CE3932"/>
<path d="M86.6002 108.632L73.936 105.506L69.0093 123.484L81.6735 126.611L86.6002 108.632Z" fill="#EB5648"/>
<path d="M70.945 110.805L70.3556 112.956C72.0718 113.506 73.8024 113.536 73.8103 113.545C75.9027 113.272 77.9762 112.899 80.0338 112.441C80.3531 112.371 80.6976 112.401 80.9726 112.569C82.5214 113.514 75.201 115.09 74.5088 115.357C74.512 115.374 74.512 115.372 74.5151 115.389C76.7213 115.543 78.9386 115.59 81.1464 115.473C81.4846 115.455 81.8292 115.552 82.0662 115.783C83.3969 117.087 74.9813 117.112 74.2243 117.172C74.2243 117.181 74.2243 117.18 74.2243 117.189C76.2678 117.666 78.3681 117.921 80.4732 117.972C80.8066 117.979 81.1354 118.107 81.3392 118.357C82.534 119.825 74.0916 119.167 73.2777 118.986C73.2729 118.993 73.2682 118.999 73.2635 119.007C74.7901 119.597 76.3895 120.014 78.003 120.35C78.3112 120.414 78.5957 120.575 78.7679 120.827C79.7857 122.319 73.1117 120.923 72.3863 120.734C70.896 120.36 68.1003 120.62 65.5338 119.526C63.6105 118.707 62.765 115.119 64.7673 113.865C65.7772 113.232 67.5488 112.051 68.113 111.867C69.047 111.364 69.9952 110.434 70.945 110.805Z" fill="#F99370"/>
<path d="M72.5667 221.869C72.3628 223.26 72.1494 224.589 71.9234 225.865C64.4182 228.537 55.0181 225.925 55.0181 225.925C55.075 224.592 55.116 223.237 55.1461 221.869C55.1461 221.869 63.342 223.878 72.5682 221.869H72.5667Z" fill="#0F2E54"/>
<path d="M59.0351 224.471L55.1205 222.84C55.13 222.518 55.1363 222.194 55.1442 221.87C55.8997 186.751 48.189 149.214 47.6279 147.333C47.9566 147.79 51.4588 151.318 54.0317 163.252C56.7626 175.925 59.7969 214.176 59.0351 224.471Z" fill="#0F2E54"/>
<path d="M34.133 221.337C33.8722 222.759 33.6257 224.075 33.3949 225.273C24.8766 228.789 16.7061 225.273 16.7061 225.273C16.7061 225.273 16.7061 223.866 16.7298 221.346C17.1881 221.523 24.2477 224.156 34.133 221.335V221.337Z" fill="#0F2E54"/>
<path d="M80.6486 107.569L79.7651 107.455C79.7778 107.368 80.0844 105.31 81.4625 103.135C82.7442 101.113 85.2269 98.6213 89.7753 98.2328C106.085 96.8423 107.112 90.2451 108.301 82.6054C108.966 78.3258 109.655 73.9007 113.094 70.0605L113.773 70.6081C110.5 74.2652 109.83 78.5688 109.184 82.7299C107.991 90.3906 106.866 97.6253 89.8575 99.0758C81.8576 99.7584 80.6612 107.49 80.6502 107.568L80.6486 107.569Z" fill="#EB5648"/>
<path d="M65.5337 119.528C64.448 119.852 63.3718 120.155 62.3097 120.435C59.2612 116.933 61.3884 113.451 61.45 113.354C62.6369 113.658 63.7242 113.859 64.6629 113.945C64.6629 113.945 63.819 115.13 64.0655 116.898C64.3785 119.153 65.5337 119.528 65.5337 119.528Z" fill="#23659B"/>
<path d="M111.591 74.819C111.591 74.819 111.399 75.926 110.856 77.7426C106.23 77.8641 103.825 73.1419 103.825 73.1419C105.697 71.9764 106.948 71.1514 106.948 71.1514C106.948 71.1514 107.915 74.1259 111.591 74.8175V74.819Z" fill="#23659B"/>
<path d="M164.667 225.201H142.331C141.486 225.201 140.8 224.55 140.8 223.748V199.46C140.8 198.658 141.486 198.007 142.331 198.007H164.667C165.512 198.007 166.198 198.658 166.198 199.46V223.748C166.198 224.55 165.512 225.201 164.667 225.201ZM143.863 222.294H163.135V200.914H143.863V222.294Z" fill="#1D3F70"/>
<path d="M173 237.855H133.998C128.967 237.855 124.737 234.279 124.155 229.536L121.499 207.852H185.499L182.843 229.536C182.261 234.278 178.03 237.855 173 237.855Z" fill="#1D3F70"/>
<path d="M184.246 213.792H122.753C121.438 213.792 120.422 212.695 120.591 211.458L121.255 206.571C121.396 205.539 122.32 204.766 123.417 204.766H183.584C184.681 204.766 185.607 205.539 185.746 206.571L186.409 211.458C186.577 212.695 185.562 213.792 184.248 213.792H184.246Z" fill="#0F2E54"/>
<path d="M156.924 210.54H150.075V217.041H156.924V210.54Z" fill="#EB5648"/>
<path d="M275.248 239H0.753844C0.338202 239 0 238.68 0 238.284C0 237.888 0.336622 237.569 0.753844 237.569H275.248C275.663 237.569 276.002 237.888 276.002 238.284C276.002 238.68 275.665 239 275.248 239Z" fill="#4867AA"/>
</g>
<defs>
<clipPath id="clip0_317_9160">
<rect width="276" height="239" fill="white"/>
</clipPath>
</defs>
</svg>
