<svg width="34" height="34" viewBox="0 0 34 34" fill="none" xmlns="http://www.w3.org/2000/svg">
<g clip-path="url(#clip0_334_4031)">
<path d="M32.4496 27.0596L32.4496 27.0596C32.5809 26.9686 32.6927 26.8525 32.7787 26.7178L33.072 26.9051L32.7787 26.7178C32.8646 26.5832 32.9229 26.4329 32.9503 26.2755C32.9776 26.1182 32.9734 25.9569 32.9378 25.8012L33.2771 25.7238L32.9378 25.8012C32.9023 25.6455 32.8362 25.4984 32.7433 25.3685L32.7417 25.3664C31.4347 23.5084 29.6537 22.0345 27.5841 21.0979L27.0794 20.8695L27.5042 20.514C28.764 19.4595 29.6682 18.0424 30.0937 16.4556C30.5192 14.8687 30.4453 13.1893 29.8821 11.646C29.3189 10.1027 28.2938 8.77044 26.9463 7.83065C25.5987 6.89086 23.9943 6.3892 22.3514 6.39397L22.3499 6.39397C21.6187 6.39275 20.891 6.49371 20.1879 6.6939L20.1816 6.69568L20.1816 6.69562C20.0254 6.73695 19.879 6.80894 19.7509 6.9074C19.6228 7.00585 19.5156 7.12881 19.4355 7.26911C19.3553 7.4094 19.3039 7.56424 19.2842 7.72459C19.2645 7.88495 19.2769 8.04763 19.3206 8.20315C19.3644 8.35868 19.4387 8.50394 19.5391 8.63049L19.2665 8.84686L19.5391 8.63049C19.6396 8.75704 19.7642 8.86234 19.9057 8.94027L19.7378 9.24514L19.9057 8.94027C20.0472 9.01819 20.2028 9.06719 20.3635 9.0844C20.5241 9.1016 20.6866 9.08668 20.8414 9.0405L20.8454 9.03931L20.8454 9.03933C21.3351 8.89965 21.8419 8.82925 22.3511 8.83021M32.4496 27.0596L22.3504 9.17825M32.4496 27.0596L32.4455 27.0625C32.2424 27.2077 31.9987 27.2855 31.749 27.2848C31.5537 27.2836 31.3614 27.2359 31.1881 27.1457C31.0149 27.0556 30.8657 26.9256 30.7526 26.7664M32.4496 27.0596L30.4683 26.9672M22.3511 8.83021L22.3504 9.17825M22.3511 8.83021C22.3509 8.83021 22.3507 8.83021 22.3504 8.83021V9.17825M22.3511 8.83021C23.8277 8.83039 25.2438 9.41705 26.288 10.4612C27.3323 11.5055 27.919 12.9219 27.919 14.3988C27.919 15.8756 27.3323 17.292 26.288 18.3363C25.2437 19.3806 23.8273 19.9673 22.3504 19.9673C22.0274 19.9673 21.7175 20.0957 21.4891 20.3241C21.2607 20.5525 21.1323 20.8624 21.1323 21.1854C21.1323 21.5085 21.2607 21.8183 21.4891 22.0468C21.7175 22.2752 22.0274 22.4036 22.3504 22.4036H22.3508C23.9982 22.4054 25.6212 22.8026 27.0832 23.5618C28.5452 24.321 29.8035 25.42 30.7526 26.7664M22.3504 9.17825C23.735 9.17825 25.0629 9.72826 26.0419 10.7073C27.0209 11.6863 27.571 13.0142 27.571 14.3988C27.571 15.7833 27.0209 17.1112 26.0419 18.0902C25.0629 19.0693 23.735 19.6193 22.3504 19.6193C21.9351 19.6193 21.5367 19.7843 21.243 20.078C20.9493 20.3717 20.7843 20.7701 20.7843 21.1854C20.7843 21.6008 20.9493 21.9992 21.243 22.2929C21.5367 22.5866 21.9351 22.7516 22.3504 22.7516C23.9422 22.7533 25.5102 23.1371 26.9228 23.8707C28.3354 24.6042 29.5513 25.6661 30.4683 26.9672M30.7526 26.7664C30.7525 26.7662 30.7524 26.766 30.7522 26.7658L30.4683 26.9672M30.7526 26.7664C30.7527 26.7665 30.7528 26.7666 30.7528 26.7667L30.4683 26.9672M16.8667 20.5145L16.444 20.8702L16.9473 21.0979C19.0169 22.0345 20.7978 23.5084 22.1049 25.3664L22.1099 25.3734L22.1152 25.3802C22.2168 25.5103 22.2908 25.6597 22.3329 25.8193C22.375 25.9788 22.3842 26.1453 22.3599 26.3085C22.3357 26.4718 22.2786 26.6284 22.192 26.7689C22.1054 26.9093 21.9912 27.0308 21.8563 27.1258C21.7214 27.2208 21.5685 27.2874 21.4071 27.3215C21.2456 27.3557 21.0789 27.3567 20.9171 27.3244C20.7552 27.2922 20.6016 27.2274 20.4656 27.134C20.3295 27.0406 20.2139 26.9205 20.1256 26.7811L20.1212 26.774L20.1164 26.7672C19.1692 25.4182 17.9112 24.317 16.4486 23.5568C14.986 22.7967 13.3619 22.3998 11.7136 22.3998C10.0653 22.3998 8.4412 22.7967 6.97864 23.5568C5.51607 24.317 4.25803 25.4182 3.31087 26.7672L3.3101 26.7683C3.19875 26.9282 3.0503 27.0587 2.87746 27.1487C2.70461 27.2386 2.51253 27.2853 2.31768 27.2847L2.31555 27.2848C2.06566 27.2856 1.82183 27.2078 1.61853 27.0625L1.61686 27.0613C1.35334 26.8753 1.17436 26.5924 1.11918 26.2746C1.06401 25.9569 1.13706 25.6303 1.32231 25.3664C2.62941 23.5084 4.41036 22.0345 6.47998 21.0979L6.98329 20.8702L6.56053 20.5145C5.30411 19.4576 4.40309 18.0398 3.97963 16.4535C3.55618 14.8671 3.63077 13.189 4.19329 11.6464C4.75582 10.1039 5.77907 8.7717 7.12432 7.83038C8.46957 6.88905 10.0717 6.38417 11.7136 6.38417C13.3555 6.38417 14.9577 6.88905 16.3029 7.83038C17.6482 8.7717 18.6714 10.1039 19.234 11.6464C19.7965 13.189 19.8711 14.8671 19.4476 16.4535C19.0242 18.0398 18.1231 19.4576 16.8667 20.5145ZM7.08354 11.305C6.47166 12.2208 6.14507 13.2974 6.14507 14.3988C6.14507 15.8756 6.73175 17.292 7.77606 18.3363C8.82037 19.3806 10.2368 19.9673 11.7136 19.9673C12.815 19.9673 13.8916 19.6407 14.8073 19.0289C15.7231 18.417 16.4368 17.5473 16.8583 16.5298C17.2798 15.5122 17.39 14.3926 17.1752 13.3124C16.9603 12.2322 16.43 11.24 15.6512 10.4612C14.8724 9.68243 13.8802 9.15207 12.8 8.93721C11.7198 8.72235 10.6002 8.83262 9.58263 9.25409C8.56511 9.67556 7.69542 10.3893 7.08354 11.305Z" fill="#0274BC" stroke="#0274BC" stroke-width="0.696069"/>
</g>
<defs>
<clipPath id="clip0_334_4031">
<rect width="33.4113" height="33.4113" fill="white" transform="translate(0.228516 0.303467)"/>
</clipPath>
</defs>
</svg>
