<svg width="35" height="34" viewBox="0 0 35 34" fill="none" xmlns="http://www.w3.org/2000/svg">
<mask id="path-1-inside-1_334_4037" fill="white">
<path d="M20.3153 16.7618C20.1477 16.7618 19.9921 16.7157 19.8538 16.6415V16.6435C19.8538 16.9072 19.7513 17.1549 19.5654 17.3403C19.3794 17.5263 19.1319 17.6288 18.8685 17.6288C18.6985 17.6288 18.5409 17.5816 18.4012 17.5055C18.387 17.7467 18.2906 17.9722 18.1186 18.1444C17.9326 18.3304 17.6852 18.4329 17.4216 18.4329C16.898 18.4329 16.4727 18.0212 16.4421 17.5053C16.2801 17.5929 16.0969 17.6388 15.9079 17.6267C15.3928 17.5929 14.9894 17.1478 14.9894 16.6132V12.1815L14.4848 13.0558C14.2926 13.3902 13.9328 13.5978 13.5454 13.5978C13.3567 13.5978 13.1702 13.5482 13.0051 13.4536C12.7994 13.3344 12.6523 13.143 12.5912 12.9141C12.5297 12.685 12.5615 12.4454 12.6804 12.24C12.6805 12.24 14.3315 9.38115 14.4322 9.20554C14.4441 9.17913 14.4783 9.10255 14.5073 9.03728C14.535 8.97496 14.5588 8.91101 14.5816 8.84672C15.0794 7.44116 16.3122 6.56806 17.7989 6.56806C19.7296 6.56806 21.3003 8.27127 21.3003 10.3648L21.3005 15.7763C21.3005 16.0397 21.1982 16.2872 21.0124 16.4733C20.8264 16.6593 20.5789 16.7618 20.3153 16.7618L20.3153 16.7618ZM17.799 7.0916C16.5214 7.0916 15.5032 7.81319 15.075 9.02181C15.0477 9.09856 15.0191 9.17531 14.9858 9.25009C14.8892 9.46673 14.8892 9.46672 14.862 9.49788L14.8584 9.49476C14.7236 9.74912 14.3231 10.4426 13.1337 12.5021C13.0848 12.5865 13.0719 12.6846 13.0968 12.7784C13.1221 12.8722 13.1826 12.9512 13.2664 12.9996C13.5265 13.149 13.8827 13.0526 14.0309 12.7943L15.0245 11.074C15.0839 10.9715 15.2039 10.9212 15.3191 10.9523C15.4335 10.983 15.5131 11.0868 15.5131 11.2052V16.6133C15.5131 16.8685 15.7056 17.0887 15.9423 17.1043C16.0787 17.1115 16.206 17.0658 16.3016 16.9703C16.3885 16.8834 16.4364 16.7676 16.4364 16.6438V13.1068C16.4364 12.9622 16.5536 12.8449 16.6983 12.8449C16.8429 12.8449 16.9602 12.962 16.9602 13.1068L16.96 17.4478C16.96 17.7023 17.1671 17.9094 17.4216 17.9094C17.5453 17.9094 17.6614 17.8615 17.7485 17.7746C17.8354 17.6875 17.8833 17.5714 17.8833 17.4478V13.1068C17.8833 12.9622 18.0004 12.8449 18.1452 12.8449C18.2898 12.8449 18.4071 12.962 18.4071 13.1068L18.4069 16.6031V16.6438C18.4069 16.8982 18.614 17.1053 18.8687 17.1053C18.9922 17.1053 19.108 17.0572 19.1955 16.97C19.2825 16.8832 19.3303 16.7674 19.3303 16.6436V13.1066C19.3303 12.962 19.4474 12.8447 19.5922 12.8447C19.7369 12.8447 19.8541 12.9618 19.8541 13.1066L19.8538 15.7764C19.8538 16.0311 20.0609 16.2383 20.3153 16.2383C20.4391 16.2383 20.5549 16.1902 20.6418 16.1035C20.729 16.0162 20.7767 15.9001 20.7767 15.7764L20.7769 10.365C20.7769 8.56023 19.441 7.09165 17.7989 7.09165L17.799 7.0916Z"/>
</mask>
<path d="M20.3153 16.7618C20.1477 16.7618 19.9921 16.7157 19.8538 16.6415V16.6435C19.8538 16.9072 19.7513 17.1549 19.5654 17.3403C19.3794 17.5263 19.1319 17.6288 18.8685 17.6288C18.6985 17.6288 18.5409 17.5816 18.4012 17.5055C18.387 17.7467 18.2906 17.9722 18.1186 18.1444C17.9326 18.3304 17.6852 18.4329 17.4216 18.4329C16.898 18.4329 16.4727 18.0212 16.4421 17.5053C16.2801 17.5929 16.0969 17.6388 15.9079 17.6267C15.3928 17.5929 14.9894 17.1478 14.9894 16.6132V12.1815L14.4848 13.0558C14.2926 13.3902 13.9328 13.5978 13.5454 13.5978C13.3567 13.5978 13.1702 13.5482 13.0051 13.4536C12.7994 13.3344 12.6523 13.143 12.5912 12.9141C12.5297 12.685 12.5615 12.4454 12.6804 12.24C12.6805 12.24 14.3315 9.38115 14.4322 9.20554C14.4441 9.17913 14.4783 9.10255 14.5073 9.03728C14.535 8.97496 14.5588 8.91101 14.5816 8.84672C15.0794 7.44116 16.3122 6.56806 17.7989 6.56806C19.7296 6.56806 21.3003 8.27127 21.3003 10.3648L21.3005 15.7763C21.3005 16.0397 21.1982 16.2872 21.0124 16.4733C20.8264 16.6593 20.5789 16.7618 20.3153 16.7618L20.3153 16.7618ZM17.799 7.0916C16.5214 7.0916 15.5032 7.81319 15.075 9.02181C15.0477 9.09856 15.0191 9.17531 14.9858 9.25009C14.8892 9.46673 14.8892 9.46672 14.862 9.49788L14.8584 9.49476C14.7236 9.74912 14.3231 10.4426 13.1337 12.5021C13.0848 12.5865 13.0719 12.6846 13.0968 12.7784C13.1221 12.8722 13.1826 12.9512 13.2664 12.9996C13.5265 13.149 13.8827 13.0526 14.0309 12.7943L15.0245 11.074C15.0839 10.9715 15.2039 10.9212 15.3191 10.9523C15.4335 10.983 15.5131 11.0868 15.5131 11.2052V16.6133C15.5131 16.8685 15.7056 17.0887 15.9423 17.1043C16.0787 17.1115 16.206 17.0658 16.3016 16.9703C16.3885 16.8834 16.4364 16.7676 16.4364 16.6438V13.1068C16.4364 12.9622 16.5536 12.8449 16.6983 12.8449C16.8429 12.8449 16.9602 12.962 16.9602 13.1068L16.96 17.4478C16.96 17.7023 17.1671 17.9094 17.4216 17.9094C17.5453 17.9094 17.6614 17.8615 17.7485 17.7746C17.8354 17.6875 17.8833 17.5714 17.8833 17.4478V13.1068C17.8833 12.9622 18.0004 12.8449 18.1452 12.8449C18.2898 12.8449 18.4071 12.962 18.4071 13.1068L18.4069 16.6031V16.6438C18.4069 16.8982 18.614 17.1053 18.8687 17.1053C18.9922 17.1053 19.108 17.0572 19.1955 16.97C19.2825 16.8832 19.3303 16.7674 19.3303 16.6436V13.1066C19.3303 12.962 19.4474 12.8447 19.5922 12.8447C19.7369 12.8447 19.8541 12.9618 19.8541 13.1066L19.8538 15.7764C19.8538 16.0311 20.0609 16.2383 20.3153 16.2383C20.4391 16.2383 20.5549 16.1902 20.6418 16.1035C20.729 16.0162 20.7767 15.9001 20.7767 15.7764L20.7769 10.365C20.7769 8.56023 19.441 7.09165 17.7989 7.09165L17.799 7.0916Z" fill="#0274BC"/>
<path d="M20.3153 16.7618V15.8337H23.5943L20.8017 17.5522L20.3153 16.7618ZM19.8538 16.6415H18.9257V15.0908L20.2924 15.8236L19.8538 16.6415ZM19.5654 17.3403L18.9091 16.6841L18.91 16.6832L19.5654 17.3403ZM18.4012 17.5055L17.4746 17.4513L17.56 15.9906L18.845 16.6904L18.4012 17.5055ZM18.1186 18.1444L18.7752 18.8003L18.7749 18.8007L18.1186 18.1444ZM16.4421 17.5053L16.0008 16.6888L17.2822 15.9963L17.3685 17.4503L16.4421 17.5053ZM15.9079 17.6267L15.8484 18.5528L15.8472 18.5528L15.9079 17.6267ZM14.9894 12.1815L14.1856 11.7176L15.9175 8.71717V12.1815H14.9894ZM14.4848 13.0558L13.6801 12.5933L13.681 12.5918L14.4848 13.0558ZM13.0051 13.4536L12.5437 14.2589L12.5396 14.2565L13.0051 13.4536ZM12.5912 12.9141L13.4875 12.6735L13.4878 12.6745L12.5912 12.9141ZM12.6804 12.24L11.8772 11.775L12.1453 11.3119H12.6804V12.24ZM14.4322 9.20554L15.2774 9.58879L15.2592 9.62898L15.2373 9.66726L14.4322 9.20554ZM14.5073 9.03728L13.6593 8.66015L13.6593 8.66014L14.5073 9.03728ZM14.5816 8.84672L15.4564 9.1566L15.4563 9.15685L14.5816 8.84672ZM21.3003 10.3648L20.3722 10.3649V10.3648H21.3003ZM21.3005 15.7763L22.2286 15.7763V15.7763H21.3005ZM21.0124 16.4733L21.6692 17.129L21.6686 17.1296L21.0124 16.4733ZM20.3153 16.7618V17.6899H17.0363L19.8288 15.9714L20.3153 16.7618ZM17.799 7.0916V6.16351H19.0294L18.6913 7.34657L17.799 7.0916ZM15.075 9.02181L15.9499 9.33173L15.9491 9.33373L15.075 9.02181ZM14.9858 9.25009L15.8337 9.62754L15.8335 9.62803L14.9858 9.25009ZM14.862 9.49788L15.5609 10.1085L14.9538 10.8034L14.2554 10.2003L14.862 9.49788ZM14.8584 9.49476L14.0384 9.06016L14.5837 8.0312L15.465 8.79236L14.8584 9.49476ZM13.1337 12.5021L13.9374 12.9662L13.937 12.9669L13.1337 12.5021ZM13.0968 12.7784L12.2006 13.0197L12.1998 13.0168L13.0968 12.7784ZM13.2664 12.9996L12.8041 13.8044L12.8024 13.8034L13.2664 12.9996ZM14.0309 12.7943L13.226 12.3323L13.2272 12.3301L14.0309 12.7943ZM15.0245 11.074L14.2209 10.6098L14.2214 10.6088L15.0245 11.074ZM15.3191 10.9523L15.0789 11.8488L15.0766 11.8482L15.3191 10.9523ZM15.9423 17.1043L15.8932 18.0312L15.8813 18.0304L15.9423 17.1043ZM16.3016 16.9703L16.9578 17.6266L16.9572 17.6272L16.3016 16.9703ZM16.9602 13.1068H17.8882V13.1069L16.9602 13.1068ZM16.96 17.4478H16.0319V17.4477L16.96 17.4478ZM17.7485 17.7746L18.4053 18.4303L18.4041 18.4315L17.7485 17.7746ZM18.4071 13.1068H19.3352V13.1069L18.4071 13.1068ZM18.4069 16.6031H17.4788V16.6031L18.4069 16.6031ZM19.1955 16.97L19.8512 17.6269L19.8506 17.6275L19.1955 16.97ZM19.8541 13.1066H20.7822V13.1068L19.8541 13.1066ZM19.8538 15.7764H18.9257V15.7763L19.8538 15.7764ZM20.6418 16.1035L21.298 16.7597L21.2974 16.7603L20.6418 16.1035ZM20.7767 15.7764H19.8486V15.7764L20.7767 15.7764ZM20.7769 10.365H21.705V10.365L20.7769 10.365ZM17.7989 7.09165V8.01975H16.5685L16.9066 6.83669L17.7989 7.09165ZM20.3153 17.6898C19.9735 17.6898 19.6684 17.5952 19.4152 17.4595L20.2924 15.8236C20.3044 15.83 20.312 15.8325 20.315 15.8333C20.3176 15.834 20.3173 15.8337 20.3153 15.8337V17.6898ZM20.7819 16.6415V16.6435H18.9257V16.6415H20.7819ZM20.7819 16.6435C20.7819 17.1526 20.5821 17.637 20.2207 17.9975L18.91 16.6832C18.9166 16.6766 18.9199 16.6709 18.9218 16.6663C18.9237 16.6616 18.9257 16.6545 18.9257 16.6435H20.7819ZM20.2216 17.9966C19.8614 18.3568 19.3779 18.5569 18.8685 18.5569V16.7007C18.8792 16.7007 18.8862 16.6988 18.8909 16.6968C18.8957 16.6948 18.9018 16.6913 18.9091 16.6841L20.2216 17.9966ZM18.8685 18.5569C18.5223 18.5569 18.2134 18.46 17.9573 18.3205L18.845 16.6904C18.8571 16.697 18.8648 16.6995 18.8678 16.7003C18.8704 16.701 18.8702 16.7007 18.8685 16.7007V18.5569ZM19.3277 17.5596C19.301 18.0165 19.1156 18.4595 18.7752 18.8003L17.462 17.4885C17.4654 17.485 17.4674 17.482 17.4691 17.4782C17.4709 17.474 17.4738 17.4655 17.4746 17.4513L19.3277 17.5596ZM18.7749 18.8007C18.4146 19.1609 17.931 19.361 17.4216 19.361V17.5048C17.4324 17.5048 17.4395 17.5028 17.4442 17.5008C17.449 17.4989 17.4551 17.4954 17.4623 17.4881L18.7749 18.8007ZM17.4216 19.361C16.397 19.361 15.5748 18.5568 15.5156 17.5603L17.3685 17.4503C17.3695 17.4661 17.3759 17.4799 17.3874 17.4908C17.3929 17.4961 17.3986 17.4995 17.4035 17.5015C17.4078 17.5033 17.4133 17.5048 17.4216 17.5048V19.361ZM16.8834 18.3218C16.5836 18.4838 16.2281 18.5772 15.8484 18.5528L15.9674 16.7005C15.9675 16.7005 15.9694 16.7007 15.9743 16.6995C15.9796 16.6983 15.9886 16.6954 16.0008 16.6888L16.8834 18.3218ZM15.8472 18.5528C14.8167 18.4852 14.0613 17.6088 14.0613 16.6132H15.9175C15.9175 16.6446 15.9289 16.6687 15.9432 16.6845C15.9571 16.6998 15.9666 16.7004 15.9687 16.7006L15.8472 18.5528ZM14.0613 16.6132V12.1815H15.9175V16.6132H14.0613ZM15.7932 12.6455L15.2886 13.5197L13.681 12.5918L14.1856 11.7176L15.7932 12.6455ZM15.2894 13.5183C14.9308 14.1422 14.2633 14.5259 13.5454 14.5259V12.6697C13.6023 12.6697 13.6544 12.6381 13.6801 12.5933L15.2894 13.5183ZM13.5454 14.5259C13.1945 14.5259 12.849 14.4338 12.5437 14.2589L13.4665 12.6484C13.4915 12.6627 13.5189 12.6697 13.5454 12.6697V14.5259ZM12.5396 14.2565C12.1229 14.015 11.8196 13.6218 11.6945 13.1536L13.4878 12.6745C13.487 12.6713 13.4847 12.6657 13.4802 12.6599C13.4757 12.6541 13.4716 12.6513 13.4706 12.6507L12.5396 14.2565ZM11.6948 13.1547C11.5692 12.6868 11.635 12.1933 11.8772 11.775L13.4835 12.7051C13.4849 12.7028 13.4872 12.6975 13.4882 12.69C13.4892 12.6825 13.4883 12.6765 13.4875 12.6735L11.6948 13.1547ZM12.6804 11.3119C12.2251 11.4313 11.8844 11.7629 11.8818 11.7671C11.881 11.7686 11.8797 11.7707 11.8793 11.7714C11.8791 11.7718 11.8787 11.7725 11.8785 11.7727C11.8785 11.7729 11.8783 11.7731 11.8782 11.7732C11.8781 11.7734 11.8782 11.7734 11.8785 11.7728C11.8791 11.7717 11.8802 11.7699 11.8817 11.7672C11.8848 11.7619 11.8894 11.754 11.8954 11.7435C11.9075 11.7226 11.9253 11.6919 11.9479 11.6526C11.9933 11.5742 12.0581 11.4618 12.1363 11.3265C12.2927 11.0557 12.5022 10.6929 12.7148 10.3246C13.1408 9.58672 13.5776 8.83007 13.6271 8.74381L15.2373 9.66726C15.186 9.75661 14.747 10.5172 14.3223 11.2527C14.1096 11.6211 13.9001 11.9839 13.7437 12.2547C13.6655 12.3901 13.6006 12.5025 13.5552 12.5811C13.5325 12.6204 13.5147 12.6512 13.5025 12.6723C13.4965 12.6828 13.4918 12.6909 13.4885 12.6965C13.487 12.6992 13.4856 12.7015 13.4847 12.7032C13.4842 12.7039 13.4837 12.7049 13.4831 12.7058C13.4829 12.7062 13.4823 12.7072 13.4816 12.7084C13.4812 12.7092 13.4799 12.7114 13.479 12.7129C13.4764 12.7172 13.1356 13.0488 12.6804 13.1681V11.3119ZM13.5869 8.82228C13.5971 8.79975 13.6295 8.7271 13.6593 8.66015L15.3553 9.41441C15.327 9.478 15.2912 9.55852 15.2774 9.58879L13.5869 8.82228ZM13.6593 8.66014C13.6722 8.63114 13.6864 8.59408 13.7068 8.53659L15.4563 9.15685C15.4311 9.22794 15.3978 9.31879 15.3553 9.41442L13.6593 8.66014ZM13.7067 8.53684C14.3353 6.76223 15.9175 5.63997 17.7989 5.63997V7.49615C16.7069 7.49615 15.8235 8.12009 15.4564 9.1566L13.7067 8.53684ZM17.7989 5.63997C20.3115 5.63997 22.2284 7.8309 22.2284 10.3648H20.3722C20.3722 8.71164 19.1477 7.49615 17.7989 7.49615V5.63997ZM22.2284 10.3648L22.2286 15.7763L20.3724 15.7764L20.3722 10.3649L22.2284 10.3648ZM22.2286 15.7763C22.2286 16.2853 22.0289 16.7686 21.6692 17.129L20.3555 15.8177C20.3628 15.8103 20.3664 15.8041 20.3684 15.7992C20.3704 15.7943 20.3724 15.7871 20.3724 15.7763H22.2286ZM21.6686 17.1296C21.3084 17.4898 20.8247 17.6899 20.3153 17.6899V15.8337C20.3262 15.8337 20.3333 15.8317 20.338 15.8297C20.3428 15.8278 20.3489 15.8243 20.3561 15.817L21.6686 17.1296ZM19.8288 15.9714L19.8289 15.9713L20.8017 17.5522L20.8017 17.5522L19.8288 15.9714ZM17.799 8.01969C16.9166 8.01969 16.2474 8.49174 15.9499 9.33173L14.2002 8.71189C14.759 7.13464 16.1263 6.16351 17.799 6.16351V8.01969ZM15.9491 9.33373C15.9199 9.41583 15.8818 9.51951 15.8337 9.62754L14.138 8.87263C14.1564 8.8311 14.1755 8.78129 14.2009 8.70989L15.9491 9.33373ZM15.8335 9.62803C15.791 9.72336 15.7554 9.80386 15.7281 9.85838C15.7112 9.89223 15.6838 9.94438 15.6441 10.0022C15.6039 10.0607 15.5641 10.1048 15.5609 10.1085L14.1631 8.88723C14.1653 8.88473 14.1646 8.88554 14.1635 8.88682C14.1621 8.88847 14.1585 8.89267 14.1537 8.89844C14.1488 8.90442 14.1426 8.91214 14.1357 8.92131C14.1287 8.93057 14.1215 8.94042 14.1144 8.95081C14.0998 8.97197 14.0887 8.9905 14.0807 9.00452C14.0733 9.0176 14.0687 9.02666 14.0677 9.0287C14.0666 9.0308 14.0673 9.02956 14.0704 9.02281C14.0735 9.01627 14.0778 9.00685 14.084 8.99313C14.0902 8.97954 14.0976 8.96312 14.1066 8.94283C14.1157 8.92257 14.126 8.89935 14.1382 8.87214L15.8335 9.62803ZM14.2554 10.2003L14.2518 10.1972L15.465 8.79236L15.4686 8.79548L14.2554 10.2003ZM15.6785 9.92937C15.5332 10.2034 15.1185 10.9212 13.9374 12.9662L12.33 12.0379C13.5278 9.9641 13.914 9.29479 14.0384 9.06016L15.6785 9.92937ZM13.937 12.9669C14.0113 12.8386 14.032 12.6837 13.9938 12.54L12.1998 13.0168C12.1118 12.6854 12.1584 12.3345 12.3304 12.0372L13.937 12.9669ZM13.993 12.5371C13.9548 12.3953 13.8609 12.2712 13.7304 12.1958L12.8024 13.8034C12.5042 13.6313 12.2893 13.3491 12.2006 13.0197L13.993 12.5371ZM13.7286 12.1948C13.623 12.1342 13.5202 12.1346 13.4493 12.1537C13.3786 12.1727 13.288 12.2242 13.226 12.3323L14.8358 13.2563C14.4314 13.961 13.507 14.2081 12.8041 13.8044L13.7286 12.1948ZM13.2272 12.3301L14.2209 10.6098L15.8282 11.5382L14.8346 13.2585L13.2272 12.3301ZM14.2214 10.6088C14.4895 10.146 15.0367 9.9144 15.5615 10.0565L15.0766 11.8482C15.3712 11.9279 15.6783 11.797 15.8276 11.5392L14.2214 10.6088ZM15.5592 10.0558C16.0799 10.1953 16.4412 10.6672 16.4412 11.2052H14.585C14.585 11.5064 14.7872 11.7706 15.0789 11.8488L15.5592 10.0558ZM16.4412 11.2052V16.6133H14.585V11.2052H16.4412ZM16.4412 16.6133C16.4412 16.5076 16.402 16.4114 16.3377 16.3378C16.2735 16.2644 16.1601 16.1885 16.0032 16.1782L15.8813 18.0304C15.1 17.979 14.585 17.2984 14.585 16.6133H16.4412ZM15.9913 16.1775C15.8816 16.1717 15.7477 16.2119 15.6459 16.3135L16.9572 17.6272C16.6642 17.9197 16.2758 18.0513 15.8932 18.0311L15.9913 16.1775ZM15.6453 16.3141C15.5572 16.4021 15.5083 16.5228 15.5083 16.6438H17.3645C17.3645 17.0124 17.2197 17.3647 16.9578 17.6266L15.6453 16.3141ZM15.5083 16.6438V13.1068H17.3645V16.6438H15.5083ZM15.5083 13.1068C15.5083 12.4496 16.041 11.9168 16.6983 11.9168V13.773C17.0662 13.773 17.3645 13.4748 17.3645 13.1068H15.5083ZM16.6983 11.9168C17.3551 11.9168 17.8882 12.4491 17.8882 13.1068H16.0321C16.0321 13.475 16.3307 13.773 16.6983 13.773V11.9168ZM17.8882 13.1069L17.8881 17.4478L16.0319 17.4477L16.0321 13.1068L17.8882 13.1069ZM17.8881 17.4478C17.8881 17.1897 17.6797 16.9813 17.4216 16.9813V18.8375C16.6545 18.8375 16.0319 18.2149 16.0319 17.4478H17.8881ZM17.4216 16.9813C17.3008 16.9813 17.1807 17.03 17.0928 17.1177L18.4041 18.4315C18.142 18.6931 17.7897 18.8375 17.4216 18.8375V16.9813ZM17.0916 17.119C17.0038 17.2069 16.9552 17.327 16.9552 17.4478H18.8114C18.8114 17.8159 18.6669 18.1682 18.4053 18.4303L17.0916 17.119ZM16.9552 17.4478V13.1068H18.8114V17.4478H16.9552ZM16.9552 13.1068C16.9552 12.45 17.4874 11.9168 18.1452 11.9168V13.773C18.5133 13.773 18.8114 13.4744 18.8114 13.1068H16.9552ZM18.1452 11.9168C18.802 11.9168 19.3352 12.4491 19.3352 13.1068H17.479C17.479 13.475 17.7776 13.773 18.1452 13.773V11.9168ZM19.3352 13.1069L19.335 16.6032L17.4788 16.6031L17.479 13.1068L19.3352 13.1069ZM19.335 16.6031V16.6438H17.4788V16.6031H19.335ZM19.335 16.6438C19.335 16.3851 19.1261 16.1772 18.8687 16.1772V18.0334C18.1019 18.0334 17.4788 17.4112 17.4788 16.6438H19.335ZM18.8687 16.1772C18.7454 16.1772 18.626 16.2273 18.5405 16.3125L19.8506 17.6275C19.5899 17.8871 19.239 18.0334 18.8687 18.0334V16.1772ZM18.5399 16.3131C18.4511 16.4017 18.4022 16.5228 18.4022 16.6436H20.2584C20.2584 17.0121 20.1138 17.3647 19.8512 17.6269L18.5399 16.3131ZM18.4022 16.6436V13.1066H20.2584V16.6436H18.4022ZM18.4022 13.1066C18.4022 12.4498 18.9345 11.9167 19.5922 11.9167V13.7728C19.9604 13.7728 20.2584 13.4742 20.2584 13.1066H18.4022ZM19.5922 11.9167C20.2491 11.9167 20.7822 12.4489 20.7822 13.1066H18.926C18.926 13.4748 19.2247 13.7728 19.5922 13.7728V11.9167ZM20.7822 13.1068L20.7819 15.7766L18.9257 15.7763L18.926 13.1065L20.7822 13.1068ZM20.7819 15.7764C20.7819 15.519 20.5739 15.3102 20.3153 15.3102V17.1663C19.5479 17.1663 18.9257 16.5433 18.9257 15.7764H20.7819ZM20.3153 15.3102C20.1935 15.3102 20.0734 15.3594 19.9861 15.4466L21.2974 16.7603C21.0363 17.021 20.6846 17.1663 20.3153 17.1663V15.3102ZM19.9855 15.4472C19.8971 15.5356 19.8486 15.6562 19.8486 15.7764H21.7048C21.7048 16.144 21.5609 16.4968 21.298 16.7597L19.9855 15.4472ZM19.8486 15.7764L19.8488 10.3649L21.705 10.365L21.7048 15.7765L19.8486 15.7764ZM19.8488 10.365C19.8488 8.98822 18.8478 8.01975 17.7989 8.01975V6.16356C20.0343 6.16356 21.705 8.13224 21.705 10.365H19.8488ZM16.9066 6.83669L16.9066 6.83663L18.6913 7.34657L18.6913 7.34662L16.9066 6.83669Z" fill="#0274BC" mask="url(#path-1-inside-1_334_4037)"/>
<path d="M11.8327 21.7367C11.7084 21.8115 11.5477 21.7711 11.4734 21.647C11.3989 21.523 11.4393 21.3621 11.5631 21.2877M11.8327 21.7367L14.0953 18.6922C14.3139 18.5608 14.6022 18.6126 14.737 18.8076M11.8327 21.7367L14.8656 19.9172H14.8657L14.8661 19.917M11.8327 21.7367L16.0301 20.2953C16.136 20.2317 16.2108 20.131 16.2406 20.0115M11.5631 21.2877L14.5961 19.4682C14.7021 19.4045 14.777 19.3037 14.8069 19.1845M11.5631 21.2877L11.5938 21.3389L11.6978 21.5122L11.698 21.5126L11.7449 21.5907L11.8018 21.6856L11.8019 21.6855L11.802 21.6855L11.8022 21.6854M11.5631 21.2877L11.5939 21.3388M14.8069 19.1845C14.8397 19.0536 14.8147 18.9198 14.737 18.8076M14.8069 19.1845L14.8817 19.2032L14.8746 19.0493C14.8696 18.9434 14.8387 18.8494 14.7862 18.7739L14.7861 18.7737L14.737 18.8076M14.8069 19.1845L14.8817 19.2032L14.8891 19.362L14.7373 19.4531H14.737L14.6268 19.5192L14.6268 19.5193L14.6268 19.5193L11.594 21.3387M14.737 18.8076L14.7861 18.7736L12.5467 22.9261C12.642 22.8688 12.6735 22.745 12.6157 22.6488C12.5585 22.5535 12.4342 22.5221 12.3385 22.5795L15.3714 20.7601C15.4411 20.7182 15.5141 20.6866 15.5887 20.6649L16.0591 20.3437L16.0591 20.3437L16.085 20.326C16.1954 20.2506 16.2684 20.1462 16.2984 20.026L16.2984 20.0259L16.2406 20.0115M11.594 21.3387C11.6894 21.2817 11.8136 21.3126 11.8712 21.4081C11.8713 21.4083 11.8715 21.4085 11.8716 21.4087C11.9288 21.5047 11.8973 21.6282 11.8022 21.6854M11.594 21.3387C11.5939 21.3388 11.5939 21.3388 11.5939 21.3388M11.594 21.3387L11.5939 21.3388M11.8022 21.6854L14.8349 19.8661L14.8349 19.8661L14.8351 19.866C14.8352 19.8659 14.8352 19.8659 14.8353 19.8658L14.8656 19.9162L14.8657 19.9165L14.8661 19.917M11.8022 21.6854L11.6982 21.5124L11.698 21.5121L11.6629 21.4536L11.5939 21.3388M14.8661 19.917V19.8465C14.9246 19.8082 14.9781 19.7638 15.026 19.7142L15.5252 19.4536L15.5252 19.4536L15.5528 19.4392C15.6331 19.3973 15.714 19.3777 15.7909 19.3777C15.8325 19.3777 15.8753 19.3829 15.919 19.3937C15.919 19.3937 15.9191 19.3937 15.9191 19.3937C15.9192 19.3937 15.9194 19.3938 15.9195 19.3938L16.0172 19.0014M14.8661 19.917L15.5552 19.5036C15.6608 19.4403 15.7844 19.4218 15.9046 19.4516C16.0242 19.4814 16.125 19.5562 16.1885 19.662C16.252 19.7679 16.2705 19.8921 16.2406 20.0115M16.0172 19.0014C16.0172 19.0014 16.0172 19.0014 16.0172 19.0014M16.0172 19.0014C16.2563 19.0612 16.4597 19.2121 16.5863 19.4231L16.6374 19.3925M16.0172 19.0014L16.0316 18.9435M16.0172 19.0014L15.9192 19.3937C16.0549 19.4276 16.1674 19.511 16.2395 19.6312C16.2395 19.6312 16.2395 19.6313 16.2396 19.6313C16.2396 19.6314 16.2396 19.6314 16.2396 19.6314C16.3119 19.7521 16.3323 19.8905 16.2984 20.0258L16.2984 20.0259L16.2406 20.0115M16.0172 19.0014C16.0171 19.0014 16.0171 19.0014 16.017 19.0014L16.0164 19.0012C15.9447 18.9834 15.8721 18.9743 15.7998 18.9737M16.0172 19.0014L16.0316 18.9435M15.5796 21.1067L15.8412 20.9498L16.1109 21.1089C16.1917 21.1566 16.2528 21.2163 16.2941 21.2852L16.2942 21.2855C16.2942 21.2856 16.2943 21.2856 16.2943 21.2857L16.2434 21.3163M15.5796 21.1067L16.3534 21.6803C16.3871 21.5447 16.3665 21.4063 16.2944 21.2858L16.2434 21.3163M15.5796 21.1067L15.6103 21.1579M15.5796 21.1067L15.5795 21.1068L15.6103 21.1579M16.2434 21.3163C16.1124 21.0981 15.8282 21.027 15.6103 21.1579M16.2434 21.3163C16.3071 21.4221 16.3256 21.5464 16.2957 21.666L15.6103 21.1579M16.6856 21.036C16.6878 21.0396 16.69 21.0433 16.6922 21.0469L16.6856 21.036ZM16.6856 21.036C16.6699 21.0483 16.654 21.0602 16.6378 21.0718C16.6389 21.0736 16.64 21.0753 16.6411 21.0771L16.6856 21.036ZM16.6134 20.3283C16.6468 20.2642 16.6729 20.1957 16.6908 20.124L16.6134 20.3283ZM16.6134 20.3283C16.63 20.3386 16.6465 20.3493 16.6629 20.3604C16.7001 20.2911 16.7291 20.2168 16.7486 20.1384C16.8124 19.8833 16.7729 19.6185 16.6374 19.3925M16.6134 20.3283L16.6909 20.1239C16.7506 19.8848 16.7129 19.6345 16.5866 19.4235L16.5864 19.4232C16.5864 19.4232 16.5864 19.4232 16.5863 19.4231L16.6374 19.3925M16.6374 19.3925C16.5021 19.1669 16.287 19.0073 16.0316 18.9435M16.0316 18.9435L15.7946 18.9137M15.7946 18.9137C15.7967 18.9337 15.7985 18.9537 15.7998 18.9737M15.7946 18.9137C15.7933 18.9137 15.7921 18.9137 15.7909 18.9137C15.634 18.9137 15.4798 18.9538 15.3381 19.0278M15.7946 18.9137L15.3381 19.0278M15.7998 18.9737C15.8005 18.9845 15.8012 18.9954 15.8017 19.0063L15.7909 19.0068L15.5028 19.0202M15.7998 18.9737C15.7968 18.9736 15.7939 18.9736 15.7909 18.9736C15.693 18.9737 15.5958 18.9894 15.5028 19.0202M15.5028 19.0202L15.3381 19.0278M15.5028 19.0202C15.4555 19.0358 15.4094 19.0553 15.3646 19.0786C15.3484 19.0871 15.3324 19.0961 15.3166 19.1056L15.3164 19.1057L15.2834 19.1255M15.3381 19.0278L15.0736 19.2513L15.0737 19.2513L15.257 19.2971C15.257 19.2972 15.257 19.2972 15.257 19.2973C15.2713 19.2402 15.28 19.1827 15.2834 19.1255M15.3381 19.0278L15.2673 18.8921M15.3381 19.0278C15.3308 18.8697 15.2891 18.714 15.2091 18.575C15.1909 18.5831 15.1729 18.5916 15.155 18.6004M15.2834 19.1255C15.2853 19.0936 15.2855 19.0619 15.2841 19.0303C15.282 18.9838 15.2764 18.9376 15.2673 18.8921M15.2834 19.1255L15.2673 18.8921M15.2673 18.8921L15.1234 18.6164C15.1339 18.611 15.1444 18.6056 15.155 18.6004M15.2673 18.8921L15.1185 18.5434C15.1314 18.5621 15.1436 18.581 15.155 18.6004M15.2673 18.8921C15.2469 18.7901 15.2091 18.6916 15.155 18.6004M16.3467 20.7092L16.426 20.5748C16.3916 20.6069 16.3547 20.6365 16.3154 20.6634C16.3003 20.6737 16.2848 20.6837 16.269 20.6931L16.2688 20.6933L16.2353 20.7134L16.3467 20.7092ZM8.93587 18.5496L8.88311 18.5218C8.87341 18.5393 8.84927 18.5828 8.8136 18.6471C8.80477 18.663 8.79523 18.6802 8.78503 18.6985C8.80321 18.7076 8.82155 18.7156 8.83993 18.7225C8.8713 18.666 8.90328 18.6083 8.93587 18.5496ZM13.0828 23.8203C13.0828 23.8203 13.0828 23.8203 13.0827 23.8203L13.0828 23.8203Z" fill="#0274BC" stroke="#0274BC" stroke-width="0.928093"/>
<path d="M24.7846 19.3858L24.7845 19.3858L24.7846 19.3858ZM24.7846 19.3858C24.6874 19.2116 24.6913 18.9971 24.7943 18.8254L24.7846 19.3858ZM19.043 18.9735C18.9705 18.9741 18.8976 18.9833 18.8257 19.0013L19.043 18.9735ZM19.043 18.9735C19.0444 18.9536 19.0461 18.9336 19.0483 18.9136L19.043 18.9735ZM24.3669 19.7112L24.3275 19.6402L24.3669 19.7112ZM23.2488 21.3387C23.2487 21.3386 23.2486 21.3386 23.2485 21.3385L23.2487 21.3386L23.2488 21.3387ZM21.7599 23.8207C21.7598 23.8206 21.7597 23.8205 21.7596 23.8205L21.7599 23.8207ZM21.7595 23.8204L21.7596 23.8205L21.7595 23.8204Z" fill="#0274BC" stroke="#0274BC" stroke-width="0.928093"/>
</svg>
