<svg width="35" height="34" viewBox="0 0 35 34" fill="none" xmlns="http://www.w3.org/2000/svg">
<path d="M4.43671 11.6313V11.9794H4.78474H29.8432H30.1913V11.6313V10.0652C30.1913 9.28058 29.8796 8.52813 29.3248 7.97334C28.77 7.41855 28.0176 7.10687 27.233 7.10687H7.395C6.61041 7.10687 5.85796 7.41855 5.30317 7.97334C4.74838 8.52813 4.43671 9.28058 4.43671 10.0652V11.6313ZM30.1913 13.7195V13.3715H29.8432H4.78474H4.43671V13.7195V23.6385C4.43671 24.4231 4.74838 25.1756 5.30317 25.7304C5.85796 26.2851 6.61041 26.5968 7.395 26.5968H27.233C28.0176 26.5968 28.77 26.2851 29.3248 25.7304C29.8796 25.1756 30.1913 24.4231 30.1913 23.6385V13.7195ZM3.04457 10.0652C3.04457 8.91136 3.50292 7.80481 4.31878 6.98895C5.13465 6.17308 6.2412 5.71473 7.395 5.71473H27.233C28.3868 5.71473 29.4933 6.17308 30.3092 6.98895C31.1251 7.80481 31.5834 8.91136 31.5834 10.0652V23.6385C31.5834 24.7923 31.1251 25.8989 30.3092 26.7147C29.4933 27.5306 28.3868 27.989 27.233 27.989H7.395C6.2412 27.989 5.13465 27.5306 4.31878 26.7147C3.50292 25.8989 3.04457 24.7923 3.04457 23.6385V10.0652ZM22.5345 20.3322H25.6668C25.8514 20.3322 26.0285 20.4055 26.159 20.5361C26.2896 20.6666 26.3629 20.8437 26.3629 21.0283C26.3629 21.2129 26.2896 21.3899 26.159 21.5205C26.0285 21.651 25.8514 21.7243 25.6668 21.7243H22.5345C22.3499 21.7243 22.1729 21.651 22.0423 21.5205C21.9118 21.3899 21.8384 21.2129 21.8384 21.0283C21.8384 20.8437 21.9118 20.6666 22.0423 20.5361C22.1729 20.4055 22.3499 20.3322 22.5345 20.3322Z" fill="#0274BC" stroke="#0274BC" stroke-width="0.696069"/>
</svg>
