<svg width="34" height="34" viewBox="0 0 34 34" fill="none" xmlns="http://www.w3.org/2000/svg">
<path d="M28.0713 29.3813V26.597C28.0713 25.1201 27.4847 23.7037 26.4403 22.6594C25.396 21.6151 23.9797 21.0284 22.5028 21.0284H21.1106C20.7414 21.0284 20.3873 20.8818 20.1263 20.6207C19.8652 20.3596 19.7185 20.0055 19.7185 19.6363V12.6756C19.7185 11.9372 19.4252 11.229 18.903 10.7068C18.3809 10.1847 17.6727 9.89131 16.9342 9.89131C16.1958 9.89131 15.4876 10.1847 14.9654 10.7068C14.4433 11.229 14.15 11.9372 14.15 12.6756V25.2048L10.8088 20.75C10.5495 20.4042 10.2132 20.1235 9.82656 19.9302C9.43995 19.7369 9.01364 19.6363 8.5814 19.6363H7.97721C6.77301 19.6363 5.79712 20.6122 5.79712 21.8164C5.79712 22.2117 5.90431 22.6001 6.10757 22.9384L9.97354 29.3813M16.9342 5.71489V4.32275V5.71489ZM25.2871 14.0677H26.6792H25.2871ZM7.18926 14.0677H8.5814H7.18926ZM10.451 7.58454L9.4668 6.60029L10.451 7.58454ZM23.4174 7.58454L24.4017 6.60029L23.4174 7.58454Z" fill="#0274BC"/>
<path d="M28.0713 29.3813V26.597C28.0713 25.1201 27.4847 23.7037 26.4403 22.6594C25.396 21.6151 23.9797 21.0284 22.5028 21.0284H21.1106C20.7414 21.0284 20.3873 20.8817 20.1263 20.6207C19.8652 20.3596 19.7185 20.0055 19.7185 19.6363V12.6756C19.7185 11.9372 19.4252 11.229 18.903 10.7068C18.3809 10.1847 17.6727 9.89131 16.9342 9.89131V9.89131C16.1958 9.89131 15.4876 10.1847 14.9654 10.7068C14.4433 11.229 14.15 11.9372 14.15 12.6756V25.2048L10.8088 20.75C10.5495 20.4042 10.2132 20.1235 9.82656 19.9302C9.43995 19.7369 9.01364 19.6363 8.5814 19.6363H7.97721C6.77301 19.6363 5.79712 20.6122 5.79712 21.8164C5.79712 22.2117 5.90431 22.6001 6.10757 22.9384L9.97354 29.3813M16.9342 5.71489V4.32275M25.2871 14.0677H26.6792M7.18926 14.0677H8.5814M10.451 7.58454L9.4668 6.60029M23.4174 7.58454L24.4017 6.60029" stroke="#0274BC" stroke-width="1.39214" stroke-linecap="round" stroke-linejoin="round"/>
</svg>
